PathFileType	4	(X/Y/Z)	C:\Users\chris\Desktop\Pose2Sim_Project\videos\pitch1_Sports2D\pitch1_Sports2D_px_person00.trc
DataRate	CameraRate	NumFrames	NumMarkers	Units	OrigDataRate	OrigDataStartFrame	OrigNumFrames
30.0	30.0	9	22	m	30.0	27	110
Frame#	Time	Hip			RHip			RKnee			RAnkle			RBigToe			RSmallToe			RHeel			LHip			LKnee			LAnkle			LBigToe			LSmallToe			LHeel			Neck			Head			Nose			RShoulder			RElbow			RWrist			LShoulder			LElbow			LWrist		
		X1	Y1	Z1	X2	Y2	Z2	X3	Y3	Z3	X4	Y4	Z4	X5	Y5	Z5	X6	Y6	Z6	X7	Y7	Z7	X8	Y8	Z8	X9	Y9	Z9	X10	Y10	Z10	X11	Y11	Z11	X12	Y12	Z12	X13	Y13	Z13	X14	Y14	Z14	X15	Y15	Z15	X16	Y16	Z16	X17	Y17	Z17	X18	Y18	Z18	X19	Y19	Z19	X20	Y20	Z20	X21	Y21	Z21	X22	Y22	Z22
27	0.9	409.6209491325353	361.1118141196991	0.0	372.4205885849883	366.0920780382097	0.0	364.80941050542776	510.55643794890557	0.0	361.6926031174804	629.9750063260992	0.0	361.4491381741165	678.9417408834091	0.0	340.4639760126104	671.359459555326	0.0	367.2150007738319	648.0321153978766	0.0	447.71886902453014	366.81449806797957	0.0	461.21877638001735	506.3799808228698	0.0	479.9316597116408	622.4047565669404	0.0	450.0173018439967	668.5117697497783	0.0	475.88154797554387	666.4567459657233	0.0	487.90869298257013	636.7156243323848	0.0	407.15569319596824	142.85305981828938	0.0	420.0075143743471	47.097332076146586	0.0	450.23571690535687	103.50796931021536	0.0	330.0608260631535	182.98156632256067	0.0	318.1989561169393	279.13372958096795	0.0	377.2560099143476	319.4304936226372	0.0	475.35222950685665	182.82536805028542	0.0	497.40555030196674	277.5226933203534	0.0	460.11631942667356	333.50381895413	0.0
28	0.9333333333333333	410.02966492427805	360.3836389306066	0.0	372.787397530834	365.357995856936	0.0	365.1333534108232	510.3660630812503	0.0	362.06342782482585	630.2938179419042	0.0	361.7006197569943	679.7498465105896	0.0	340.98203983524144	672.2366558480967	0.0	367.71722430502984	647.6127048468311	0.0	447.9965684377557	365.85447090531613	0.0	462.21434483172277	505.9390167434634	0.0	480.2979027561919	622.7739411657758	0.0	451.1393751473086	668.8049093760833	0.0	476.72711047921405	666.9857777741406	0.0	488.3910830140362	636.9980283660655	0.0	406.8764547998741	143.30210021058937	0.0	419.19753833152663	46.67771819154885	0.0	449.7996478770004	103.32239010977437	0.0	329.7641827300731	183.5674052326303	0.0	317.96359625939647	279.36265392148835	0.0	377.61134324984033	317.9280099140278	0.0	475.9822584856631	183.03305921925556	0.0	497.1387587853139	277.29548069648104	0.0	460.37584279960265	333.19526315750494	0.0
29	0.9666666666666667	409.7223842144031	360.5394226480177	0.0	373.02476188175325	365.5331400356845	0.0	365.5047110964424	510.8788720231039	0.0	363.0128659984594	630.7176547999687	0.0	362.1840879486651	680.6831886273044	0.0	341.8005080134931	673.1226409301213	0.0	368.71905076338703	648.0970794384643	0.0	447.8445110838899	365.70053524313903	0.0	462.9937981353965	505.68514073060686	0.0	481.0109910846079	623.2389164948328	0.0	451.37806744735565	669.0066411097231	0.0	476.8770719337125	667.3564136789132	0.0	489.0054488009307	637.5492917911135	0.0	406.06650954352585	143.23831397696543	0.0	418.1245041904392	46.69634601484624	0.0	449.14188529104683	103.03406905978586	0.0	328.82651622594915	184.15008337465548	0.0	317.0068894024931	279.30076399908967	0.0	376.8166310074701	316.07501402145897	0.0	475.77680851108903	183.3231905472736	0.0	496.5250168845042	276.7306954422682	0.0	460.0519385548409	332.97276635652236	0.0
30	1.0	408.95228297703653	360.94935879822043	0.0	372.6165876867885	365.90187941271574	0.0	366.012606192458	511.7120668323292	0.0	364.00045453042287	630.8092500682444	0.0	362.9288273383363	680.9290501424974	0.0	342.653770274531	673.3023077357282	0.0	369.7372037275956	648.1889635754636	0.0	446.9165863641929	365.9525794506648	0.0	463.31097946665346	505.518078612383	0.0	481.8616207227373	623.6009765269208	0.0	450.70317683875817	669.2177449825065	0.0	476.50893944208076	667.7359823059941	0.0	489.75695079733987	638.6225996554836	0.0	404.970771691461	143.21338079986953	0.0	416.87776170634856	46.98301873525573	0.0	447.9078519011806	102.9171191444974	0.0	327.52887350176104	184.61587562196567	0.0	315.83192389782	279.55182051931143	0.0	374.2172308156664	313.8363807388088	0.0	474.8135391609724	183.74009037951407	0.0	495.78300421827066	276.30866850433074	0.0	459.52158033219933	331.57447934202446	0.0
31	1.0333333333333332	408.0576826749443	360.36415684253524	0.0	371.4179182420281	365.4708020067219	0.0	366.4832319841871	511.8869796588656	0.0	364.5545403729847	630.6176129954413	0.0	363.57827345682927	680.6350087328981	0.0	343.3623225595509	673.0784508900516	0.0	370.2519554142048	647.2722331599725	0.0	445.3612834703491	365.39869804829306	0.0	463.14569208656394	504.77298990742264	0.0	482.3092242207225	623.9103168332392	0.0	450.24713008632614	669.6501508495984	0.0	476.4309209034552	667.9963270253206	0.0	490.3065579009792	639.8752385681794	0.0	403.6092250330387	143.47637250710508	0.0	415.54099789656414	46.77777016452231	0.0	446.2653815996057	103.00528259592062	0.0	325.9072446850096	184.9194442435424	0.0	314.6322214100555	280.4642212321961	0.0	370.0681568945256	311.47598176229917	0.0	473.4148266658859	183.8994448429542	0.0	494.78135759494666	276.820258846553	0.0	458.39466099207993	328.65306872714757	0.0
32	1.0666666666666667	406.54815024587276	358.9618603466294	0.0	369.85282644812986	364.5431771656346	0.0	366.49497073400266	511.27435472342177	0.0	364.6128459921217	630.6053307673129	0.0	363.9521387229026	680.8648837707556	0.0	343.96904431696925	673.3511264167339	0.0	370.27752724069364	646.7533325135669	0.0	443.4414199119723	363.9575404565487	0.0	462.6674614371562	503.4867931448876	0.0	482.5592716908504	624.3801513225037	0.0	450.67578187141834	670.093088611196	0.0	476.78595392240936	667.9897797001274	0.0	490.616570093849	640.7658989450792	0.0	401.5849076306443	143.584385489569	0.0	414.036978868357	46.14882510854444	0.0	444.4196342376449	103.03530969941782	0.0	323.53992706652105	185.3067489346871	0.0	313.0145790341117	281.92508441680803	0.0	365.53092615413374	309.3405010135298	0.0	471.3663199715425	183.54809347825295	0.0	493.16325384681744	278.16091433752604	0.0	456.1661399331229	325.3895601477043	0.0
33	1.1	403.9539419742153	357.8377211791549	0.0	368.04854061452016	364.056113061078	0.0	365.7289494913237	510.987341219192	0.0	364.4163882144747	631.0508372286392	0.0	364.23401047140175	682.09155340098	0.0	344.45304548009955	674.4704887572575	0.0	370.02036407323965	647.6021795762073	0.0	441.268163207232	362.69069067350534	0.0	461.89035027016456	502.82021140808564	0.0	483.05065742890054	625.0654924962274	0.0	451.20247940789494	670.2621237601292	0.0	476.9867192755185	668.17316223681	0.0	490.9465968327848	641.1687511273713	0.0	398.994072866263	143.1756787395607	0.0	412.21285793433526	45.76041546876833	0.0	442.37359912024124	102.78812279854303	0.0	320.42122893249456	185.97295174000172	0.0	310.63530761917946	283.73165324993045	0.0	361.47043803086143	307.3833560071109	0.0	468.80342331679196	183.1683726992703	0.0	490.78297455427423	279.59742593426415	0.0	453.05029545561587	322.7868967192271	0.0
34	1.1333333333333333	400.8237027066879	357.2530611722002	0.0	365.6173836121603	363.9021561082184	0.0	364.2513082196823	511.6290681338454	0.0	364.1539531956801	631.9164079207526	0.0	364.88356610799264	683.5603755735547	0.0	344.7098043257853	675.9771245452182	0.0	369.46386763793015	648.8961944507699	0.0	438.9914429640437	362.00472527431856	0.0	460.2900861006137	503.4328101697881	0.0	483.3105574664496	625.5991144296692	0.0	451.29206053196185	670.2034491085127	0.0	476.9891339328574	668.7588976334217	0.0	491.26007402493235	641.2758276894788	0.0	396.3573157263496	142.51912732451328	0.0	409.95452135796177	45.51507034936506	0.0	440.0512590790581	102.35765896619145	0.0	317.16371791205376	186.39671316030632	0.0	307.53919714345017	285.490055250757	0.0	357.75884737293734	304.7583011888789	0.0	466.3902644331358	183.2689783894764	0.0	488.0465877601591	280.32198923432423	0.0	449.75553336677444	320.46614780372613	0.0
35	1.1666666666666667	397.9917044739223	356.59037861719327	0.0	362.5133817862616	363.2615348177432	0.0	362.5866972444505	512.4423610236155	0.0	363.8634985161385	632.7753333324813	0.0	366.0909376776908	684.3106255816871	0.0	344.91370358644076	677.1276282191325	0.0	368.68169859754636	649.4436112411798	0.0	436.73252254970606	361.2670880684143	0.0	457.3138886106968	504.99411705821467	0.0	482.735186463136	625.3477073979079	0.0	451.6115214938881	670.1099086876194	0.0	477.3129772043836	669.0183626923704	0.0	491.4020235381646	640.9530420510807	0.0	393.6596879072079	142.184055274928	0.0	406.97164371145334	44.82805462778599	0.0	437.18306618116844	101.64212868338721	0.0	314.27501370928724	185.9469984154407	0.0	303.8541151795166	286.70940591618825	0.0	353.7576959934362	300.3541801081279	0.0	464.16856905025946	183.45766804797825	0.0	485.63771683202845	279.68841747328656	0.0	446.8802746679742	317.4056351348844	0.0
